<?xml version="1.0" encoding="UTF-8" standalone="no"?>
<!DOCTYPE svg PUBLIC "-//W3C//DTD SVG 1.1//EN" "http://www.w3.org/Graphics/SVG/1.1/DTD/svg11.dtd">
<svg xmlns="http://www.w3.org/2000/svg" version="1.1" viewBox="0.00 0.00 512.00 512.00">
<g stroke-width="2.00" fill="none" stroke-linecap="butt">
<path stroke="#003753" vector-effect="non-scaling-stroke" d="
  M 512.00 228.31
  Q 510.96 262.26 511.30 296.25
  A 0.18 0.17 41.2 0 1 510.95 296.27
  Q 510.41 292.26 510.76 288.24
  Q 510.78 288.00 510.53 288.00
  Q 510.39 288.00 510.23 287.99
  Q 509.70 287.94 509.71 288.48
  C 509.77 291.92 510.05 295.31 506.40 296.05
  A 0.47 0.47 0.0 0 1 505.85 295.68
  L 505.42 293.57
  Q 505.32 293.08 504.93 292.75
  Q 501.85 290.18 497.95 290.71
  Q 497.50 290.77 497.35 291.20
  Q 496.68 293.19 494.81 293.36
  Q 494.27 293.42 494.06 292.91
  C 492.94 290.17 490.57 292.01 489.35 293.26
  A 0.62 0.62 0.0 0 1 488.53 293.31
  Q 486.55 291.72 484.64 293.17
  C 483.47 294.06 482.61 294.31 481.54 293.26
  Q 481.28 293.01 480.93 293.12
  L 478.57 293.89
  Q 478.16 294.02 477.88 293.68
  Q 477.73 293.49 477.65 293.25
  Q 477.48 292.67 477.50 293.25
  Q 477.50 293.41 477.50 293.55
  Q 477.50 293.79 477.27 293.79
  Q 475.61 293.83 474.08 294.41
  Q 473.95 294.46 473.85 294.37
  Q 473.70 294.24 473.60 294.07
  Q 473.58 294.04 473.56 294.06
  L 473.34 294.28
  Q 473.17 294.45 472.98 294.32
  Q 472.79 294.19 472.60 294.06
  Q 472.57 294.05 472.56 294.07
  L 472.31 294.31
  A 0.26 0.25 -44.2 0 1 471.94 294.31
  L 471.71 294.09
  A 0.26 0.25 54.0 0 0 471.42 294.04
  Q 469.46 295.05 467.27 295.02
  Q 466.71 295.01 466.24 295.29
  L 463.76 296.80
  A 0.90 0.89 -43.2 0 1 462.80 296.77
  Q 460.81 295.39 458.67 296.57
  A 0.96 0.95 44.1 0 1 457.78 296.58
  Q 454.66 294.94 451.14 295.02
  Q 450.75 295.03 450.75 294.64
  L 450.75 293.55
  Q 450.75 293.18 450.39 293.11
  Q 446.41 292.37 442.67 293.81
  A 1.03 1.02 -45.4 0 1 441.95 293.82
  L 438.63 292.66
  Q 438.23 292.52 437.84 292.68
  C 436.24 293.33 432.60 292.30 432.05 293.93
  Q 431.84 294.55 431.21 294.35
  L 430.37 294.08
  A 0.45 0.44 18.2 0 1 430.08 293.52
  Q 430.27 292.89 429.75 292.12
  Q 429.44 291.66 429.03 292.03
  L 427.48 293.40
  Q 427.21 293.63 426.86 293.64
  L 422.44 293.71
  Q 421.91 293.72 421.51 293.37
  Q 421.01 292.94 420.35 292.71
  Q 419.95 292.57 419.53 292.54
  Q 417.53 292.42 415.83 293.06
  Q 415.27 293.27 414.95 292.76
  Q 414.20 291.53 412.75 291.30
  Q 412.44 291.25 412.30 291.53
  C 411.25 293.72 409.60 294.89 407.40 293.06
  Q 406.99 292.72 407.21 292.23
  Q 407.69 291.19 407.02 290.36
  Q 406.65 289.90 406.08 290.08
  Q 405.41 290.30 404.59 289.85
  A 0.30 0.29 -71.5 0 0 404.16 290.07
  L 404.10 290.56
  Q 404.03 291.06 403.52 291.02
  Q 402.93 290.97 402.80 290.38
  Q 402.65 289.74 402.05 289.98
  L 399.69 290.90
  Q 399.22 291.09 399.18 291.59
  Q 399.14 292.19 398.61 292.55
  Q 398.19 292.84 397.77 292.53
  L 397.09 292.03
  A 0.40 0.40 0.0 0 0 396.51 292.15
  L 394.75 295.10
  A 0.48 0.47 48.6 0 1 393.90 295.04
  Q 393.60 294.36 393.79 293.65
  A 0.59 0.58 6.2 0 0 393.20 292.92
  L 391.21 293.00
  Q 390.77 293.01 390.46 292.70
  Q 388.68 290.90 386.34 290.04
  C 383.83 289.12 381.88 294.44 379.93 290.71
  A 0.22 0.22 0.0 0 1 380.00 290.42
  Q 380.12 290.33 380.26 290.27
  Q 380.94 289.93 380.25 289.99
  Q 380.10 290.00 379.95 290.00
  Q 379.75 290.01 379.65 290.18
  C 378.49 292.14 373.43 291.76 371.25 292.08
  Q 370.91 292.13 371.07 291.82
  L 371.22 291.55
  A 0.32 0.32 0.0 0 0 371.13 291.15
  Q 369.80 290.14 368.92 291.09
  Q 368.61 291.43 368.64 291.89
  C 368.75 293.81 364.56 293.68 363.41 293.07
  A 0.83 0.81 15.2 0 1 362.98 292.34
  Q 363.02 290.85 361.65 290.78
  Q 361.20 290.76 360.97 290.38
  L 360.52 289.63
  A 0.69 0.68 62.6 0 0 359.67 289.36
  L 353.92 291.84
  A 0.79 0.78 65.8 0 0 353.52 292.90
  L 354.13 294.20
  A 1.33 1.33 0.0 0 1 352.66 296.07
  C 348.74 295.26 351.55 293.29 350.99 291.26
  Q 350.86 290.81 350.47 290.54
  L 347.20 288.35
  Q 346.79 288.08 346.30 288.02
  Q 345.05 287.88 343.78 288.04
  Q 343.38 288.10 343.76 288.22
  L 344.12 288.33
  A 0.65 0.65 0.0 0 1 344.43 289.37
  L 342.44 291.77
  A 0.89 0.88 -58.2 0 1 341.40 292.02
  Q 339.89 291.37 338.42 292.09
  A 0.94 0.93 52.0 0 1 337.40 291.96
  Q 336.69 291.36 335.77 291.39
  Q 335.42 291.40 335.14 291.61
  Q 333.79 292.62 332.03 292.40
  Q 331.53 292.34 331.08 292.56
  Q 328.70 293.74 326.28 292.54
  Q 325.77 292.29 326.10 291.83
  L 326.62 291.11
  Q 326.98 290.61 326.55 290.17
  L 325.40 289.02
  Q 325.15 288.77 324.85 288.97
  Q 322.29 290.68 319.23 289.90
  Q 318.70 289.76 318.39 289.31
  Q 317.42 287.89 315.81 287.99
  A 1.52 1.45 -34.2 0 0 315.21 290.82
  Q 315.40 290.89 315.45 291.76
  A 0.24 0.23 25.1 0 1 315.02 291.91
  L 314.61 291.35
  Q 314.37 291.02 313.97 291.03
  C 312.65 291.04 309.50 290.20 309.44 292.27
  Q 309.43 292.78 308.93 292.76
  L 307.91 292.72
  Q 307.33 292.70 307.24 292.13
  Q 306.97 290.42 305.75 289.24
  Q 305.33 288.83 305.79 288.47
  Q 307.95 286.80 306.38 284.26
  A 0.63 0.63 0.0 0 0 305.47 284.09
  L 304.37 284.93
  Q 304.11 285.13 303.80 285.04
  Q 302.53 284.67 301.69 285.43
  A 0.77 0.76 -40.2 0 0 301.60 286.47
  Q 301.95 286.92 301.61 287.54
  Q 301.39 287.95 300.92 288.03
  Q 299.71 288.24 299.06 287.31
  A 1.10 1.08 -21.3 0 0 298.02 286.86
  Q 294.92 287.30 295.51 288.42
  A 2.03 1.52 -17.8 0 1 293.87 290.73
  Q 291.27 291.30 289.66 293.40
  A 0.72 0.71 36.8 0 0 289.81 294.40
  Q 291.10 295.34 290.59 296.86
  Q 290.39 297.47 289.89 297.06
  Q 288.86 296.22 289.18 294.87
  A 0.55 0.55 0.0 0 0 288.85 294.22
  Q 287.87 293.81 287.97 292.68
  A 0.22 0.05 85.8 0 0 287.88 292.38
  Q 287.76 292.96 287.59 293.00
  Q 287.30 293.07 287.24 292.78
  L 286.43 288.99
  Q 286.35 288.63 286.14 288.93
  L 284.16 291.88
  Q 284.11 291.96 284.20 292.00
  Q 284.41 292.08 284.59 292.15
  Q 284.88 292.27 284.73 292.55
  L 284.24 293.49
  A 0.47 0.47 0.0 0 1 283.44 293.55
  L 283.25 293.30
  Q 283.06 293.04 283.36 292.91
  Q 283.51 292.84 283.65 292.75
  Q 284.39 292.31 283.60 292.32
  C 283.49 292.32 283.08 292.57 283.02 292.74
  Q 282.03 295.17 279.70 296.20
  Q 279.26 296.39 279.06 296.83
  Q 278.34 298.46 276.79 299.02"
/>
<path stroke="#0667ac" vector-effect="non-scaling-stroke" d="
  M 276.79 299.02
  L 339.49 215.26
  Q 339.78 214.86 339.75 214.37
  L 339.71 213.75"
/>
<path stroke="#06558b" vector-effect="non-scaling-stroke" d="
  M 339.71 213.75
  L 332.04 186.30"
/>
<path stroke="#0667ac" vector-effect="non-scaling-stroke" d="
  M 332.04 186.30
  L 384.45 114.69
  Q 384.87 114.12 384.19 114.33
  L 317.46 135.39"
/>
<path stroke="#06558b" vector-effect="non-scaling-stroke" d="
  M 317.46 135.39
  L 293.56 183.81"
/>
<path stroke="#0667ac" vector-effect="non-scaling-stroke" d="
  M 293.56 183.81
  L 99.98 56.76
  Q 99.23 56.26 99.71 57.03
  L 243.40 285.95"
/>
<path stroke="#06558b" vector-effect="non-scaling-stroke" d="
  M 243.40 285.95
  L 240.09 292.78"
/>
<path stroke="#003753" vector-effect="non-scaling-stroke" d="
  M 240.09 292.78
  Q 240.07 292.59 239.99 292.45
  Q 239.85 292.20 239.67 292.43
  L 238.11 294.53
  Q 237.59 295.23 237.48 294.36
  Q 237.21 292.10 235.20 290.97
  Q 234.65 290.67 234.34 291.21
  L 233.48 292.73
  Q 233.29 293.05 232.93 293.17
  Q 231.77 293.53 231.13 292.79
  Q 230.89 292.50 230.58 292.70
  Q 229.52 293.34 228.30 293.34
  A 0.48 0.48 0.0 0 1 227.93 292.56
  Q 228.61 291.72 229.66 291.93
  A 0.45 0.45 0.0 0 0 230.06 291.16
  L 227.60 288.81
  A 0.67 0.65 55.2 0 0 226.88 288.67
  Q 223.74 289.92 223.27 293.09
  A 1.15 1.15 0.0 0 1 220.99 292.96
  C 220.91 290.45 216.20 290.70 214.63 291.66
  A 1.79 1.72 30.0 0 1 213.62 291.91
  Q 210.42 291.73 209.14 294.88
  A 1.51 1.51 0.0 0 1 206.63 295.33
  Q 205.62 294.21 206.07 292.78
  Q 206.22 292.30 206.71 292.21
  Q 207.81 292.02 208.04 290.98
  Q 208.14 290.53 208.60 290.47
  Q 209.07 290.41 209.46 289.62
  A 1.26 0.70 -31.5 0 0 207.43 289.71
  L 206.31 291.49
  A 0.77 0.76 -66.6 0 1 205.47 291.83
  C 203.49 291.30 197.91 288.33 196.24 290.87
  Q 195.95 291.32 195.42 291.42
  Q 192.81 291.90 191.94 289.59
  A 0.71 0.71 0.0 0 0 190.60 289.60
  C 187.92 297.14 184.23 291.34 179.55 293.23
  Q 179.11 293.41 178.71 293.17
  Q 177.11 292.25 175.92 293.99
  A 1.13 0.89 -19.4 0 1 174.00 293.33
  Q 174.37 292.70 173.53 292.10
  Q 173.18 291.84 172.86 292.14
  L 171.42 293.47
  Q 171.20 293.68 170.90 293.66
  Q 169.42 293.60 167.00 293.77
  C 165.42 293.88 164.79 292.67 163.33 292.58
  Q 161.71 292.47 160.22 293.19
  Q 158.77 293.89 158.20 292.53
  A 1.08 1.07 59.9 0 0 156.56 292.09
  Q 155.70 292.74 154.93 293.82
  A 2.24 1.73 71.3 0 1 151.72 291.68
  Q 151.80 290.72 150.79 290.21
  Q 150.31 289.97 149.80 290.11
  Q 149.41 290.22 149.08 290.05
  Q 148.14 289.56 148.15 289.99
  L 148.15 290.46
  Q 148.16 290.92 147.71 291.01
  Q 146.99 291.15 146.86 290.46
  A 0.60 0.59 78.7 0 0 146.17 289.99
  C 145.51 290.11 144.18 291.10 143.72 290.51
  Q 143.40 290.10 143.35 290.57
  Q 143.24 291.61 142.61 292.58
  Q 142.18 293.24 141.73 292.60
  L 141.34 292.04
  Q 141.08 291.68 140.76 291.98
  Q 139.48 293.17 139.00 294.81
  Q 138.91 295.13 138.58 295.13
  L 138.29 295.12
  A 0.34 0.34 0.0 0 1 137.96 294.85
  L 137.59 293.23
  Q 137.47 292.69 136.93 292.85
  C 134.01 293.75 132.61 290.13 129.16 289.91
  Q 128.61 289.87 128.27 290.31
  Q 127.23 291.65 125.62 292.02
  Q 125.15 292.13 124.83 291.77
  L 123.70 290.51
  Q 123.55 290.35 123.43 290.52
  C 122.39 291.98 117.44 291.77 115.55 292.13
  Q 115.12 292.21 115.12 291.77
  L 115.13 291.28
  Q 115.13 290.65 114.51 290.70
  L 113.07 290.81
  Q 112.41 290.86 112.59 291.49
  C 113.21 293.71 108.66 293.78 107.38 293.02
  A 0.79 0.78 -74.7 0 1 106.99 292.32
  Q 107.04 290.93 105.63 290.76
  Q 105.17 290.71 104.93 290.31
  L 104.53 289.65
  Q 104.23 289.15 103.69 289.37
  L 97.78 291.76
  Q 97.25 291.97 97.33 292.53
  L 97.70 295.25
  A 0.64 0.64 0.0 0 1 97.14 295.97
  C 95.14 296.22 93.62 294.41 95.07 292.87
  A 1.84 1.43 36.0 0 0 94.36 290.43
  L 90.74 288.18
  A 1.01 1.00 54.9 0 0 90.01 288.05
  Q 88.09 288.45 87.54 290.02
  C 86.64 292.59 85.52 292.36 83.15 292.37
  Q 81.70 292.37 80.70 291.20
  Q 80.34 290.79 79.81 290.70
  Q 78.14 290.43 76.84 291.58
  Q 76.78 291.64 76.78 291.55
  Q 76.80 291.36 76.76 291.28
  Q 76.62 290.91 76.54 291.36
  C 76.31 292.62 72.75 293.43 71.73 293.61
  C 68.79 294.14 66.64 292.39 63.13 293.57
  A 1.42 1.38 -41.4 0 1 62.12 293.52
  Q 58.19 291.82 55.48 294.70
  Q 55.32 294.87 54.50 295.00
  Q 53.97 295.08 53.70 294.47
  Q 53.52 294.06 53.08 294.03
  L 51.43 293.91
  Q 51.06 293.88 50.84 294.18
  Q 50.14 295.14 48.91 295.22
  Q 48.49 295.25 48.15 295.49
  C 45.48 297.40 38.66 293.77 36.20 292.06
  A 0.62 0.62 0.0 0 0 35.42 292.11
  Q 33.62 293.79 31.47 293.29
  Q 30.95 293.16 30.57 292.78
  Q 29.99 292.19 29.92 291.56
  Q 29.88 291.17 29.57 290.95
  Q 28.73 290.36 28.13 290.96
  Q 27.89 291.19 27.98 291.51
  L 28.21 292.28
  Q 28.28 292.54 28.06 292.69
  Q 27.57 293.01 27.21 292.63
  Q 26.81 292.20 26.22 292.20
  Q 24.32 292.17 22.82 291.13
  Q 22.35 290.80 21.78 290.81
  L 17.27 290.92
  A 1.31 1.29 18.8 0 0 16.28 291.40
  Q 15.66 292.17 15.67 293.16
  A 1.21 1.21 0.0 0 1 13.51 293.91
  L 10.42 289.90
  Q 10.07 289.45 9.50 289.52
  Q 6.27 289.96 4.37 292.65
  A 0.82 0.81 -70.1 0 1 3.63 293.00
  L 2.97 292.95
  Q 2.53 292.92 2.48 293.36
  Q 1.69 300.78 1.53 308.23
  C 1.47 311.36 0.59 315.03 0.67 318.50
  Q 0.95 330.09 0.67 341.69
  A 0.09 0.09 0.0 0 1 0.49 341.69
  L 0.00 255.94"
/>
<path stroke="#0c82de" vector-effect="non-scaling-stroke" d="
  M 293.56 183.81
  Q 293.74 184.22 294.68 184.83
  Q 309.51 194.36 338.24 213.51
  Q 338.81 213.89 339.71 213.75"
/>
<path stroke="#0664a7" vector-effect="non-scaling-stroke" d="
  M 276.79 299.02
  L 263.50 316.79"
/>
<path stroke="#0c82de" vector-effect="non-scaling-stroke" d="
  M 263.50 316.79
  C 262.26 316.91 245.35 289.09 243.40 285.95"
/>
<path stroke="#0c82de" vector-effect="non-scaling-stroke" d="
  M 332.04 186.30
  L 317.46 135.39"
/>
<path stroke="#065286" vector-effect="non-scaling-stroke" d="
  M 240.09 292.78
  L 160.66 454.77
  A 0.08 0.08 0.0 0 0 160.79 454.85
  L 263.50 316.79"
/>
</g>
<path fill="#003a58" d="
  M 67.82 0.00
  L 444.06 0.00
  C 481.62 2.78 509.78 30.49 512.00 68.07
  L 512.00 228.31
  Q 510.96 262.26 511.30 296.25
  A 0.18 0.17 41.2 0 1 510.95 296.27
  Q 510.41 292.26 510.76 288.24
  Q 510.78 288.00 510.53 288.00
  Q 510.39 288.00 510.23 287.99
  Q 509.70 287.94 509.71 288.48
  C 509.77 291.92 510.05 295.31 506.40 296.05
  A 0.47 0.47 0.0 0 1 505.85 295.68
  L 505.42 293.57
  Q 505.32 293.08 504.93 292.75
  Q 501.85 290.18 497.95 290.71
  Q 497.50 290.77 497.35 291.20
  Q 496.68 293.19 494.81 293.36
  Q 494.27 293.42 494.06 292.91
  C 492.94 290.17 490.57 292.01 489.35 293.26
  A 0.62 0.62 0.0 0 1 488.53 293.31
  Q 486.55 291.72 484.64 293.17
  C 483.47 294.06 482.61 294.31 481.54 293.26
  Q 481.28 293.01 480.93 293.12
  L 478.57 293.89
  Q 478.16 294.02 477.88 293.68
  Q 477.73 293.49 477.65 293.25
  Q 477.48 292.67 477.50 293.25
  Q 477.50 293.41 477.50 293.55
  Q 477.50 293.79 477.27 293.79
  Q 475.61 293.83 474.08 294.41
  Q 473.95 294.46 473.85 294.37
  Q 473.70 294.24 473.60 294.07
  Q 473.58 294.04 473.56 294.06
  L 473.34 294.28
  Q 473.17 294.45 472.98 294.32
  Q 472.79 294.19 472.60 294.06
  Q 472.57 294.05 472.56 294.07
  L 472.31 294.31
  A 0.26 0.25 -44.2 0 1 471.94 294.31
  L 471.71 294.09
  A 0.26 0.25 54.0 0 0 471.42 294.04
  Q 469.46 295.05 467.27 295.02
  Q 466.71 295.01 466.24 295.29
  L 463.76 296.80
  A 0.90 0.89 -43.2 0 1 462.80 296.77
  Q 460.81 295.39 458.67 296.57
  A 0.96 0.95 44.1 0 1 457.78 296.58
  Q 454.66 294.94 451.14 295.02
  Q 450.75 295.03 450.75 294.64
  L 450.75 293.55
  Q 450.75 293.18 450.39 293.11
  Q 446.41 292.37 442.67 293.81
  A 1.03 1.02 -45.4 0 1 441.95 293.82
  L 438.63 292.66
  Q 438.23 292.52 437.84 292.68
  C 436.24 293.33 432.60 292.30 432.05 293.93
  Q 431.84 294.55 431.21 294.35
  L 430.37 294.08
  A 0.45 0.44 18.2 0 1 430.08 293.52
  Q 430.27 292.89 429.75 292.12
  Q 429.44 291.66 429.03 292.03
  L 427.48 293.40
  Q 427.21 293.63 426.86 293.64
  L 422.44 293.71
  Q 421.91 293.72 421.51 293.37
  Q 421.01 292.94 420.35 292.71
  Q 419.95 292.57 419.53 292.54
  Q 417.53 292.42 415.83 293.06
  Q 415.27 293.27 414.95 292.76
  Q 414.20 291.53 412.75 291.30
  Q 412.44 291.25 412.30 291.53
  C 411.25 293.72 409.60 294.89 407.40 293.06
  Q 406.99 292.72 407.21 292.23
  Q 407.69 291.19 407.02 290.36
  Q 406.65 289.90 406.08 290.08
  Q 405.41 290.30 404.59 289.85
  A 0.30 0.29 -71.5 0 0 404.16 290.07
  L 404.10 290.56
  Q 404.03 291.06 403.52 291.02
  Q 402.93 290.97 402.80 290.38
  Q 402.65 289.74 402.05 289.98
  L 399.69 290.90
  Q 399.22 291.09 399.18 291.59
  Q 399.14 292.19 398.61 292.55
  Q 398.19 292.84 397.77 292.53
  L 397.09 292.03
  A 0.40 0.40 0.0 0 0 396.51 292.15
  L 394.75 295.10
  A 0.48 0.47 48.6 0 1 393.90 295.04
  Q 393.60 294.36 393.79 293.65
  A 0.59 0.58 6.2 0 0 393.20 292.92
  L 391.21 293.00
  Q 390.77 293.01 390.46 292.70
  Q 388.68 290.90 386.34 290.04
  C 383.83 289.12 381.88 294.44 379.93 290.71
  A 0.22 0.22 0.0 0 1 380.00 290.42
  Q 380.12 290.33 380.26 290.27
  Q 380.94 289.93 380.25 289.99
  Q 380.10 290.00 379.95 290.00
  Q 379.75 290.01 379.65 290.18
  C 378.49 292.14 373.43 291.76 371.25 292.08
  Q 370.91 292.13 371.07 291.82
  L 371.22 291.55
  A 0.32 0.32 0.0 0 0 371.13 291.15
  Q 369.80 290.14 368.92 291.09
  Q 368.61 291.43 368.64 291.89
  C 368.75 293.81 364.56 293.68 363.41 293.07
  A 0.83 0.81 15.2 0 1 362.98 292.34
  Q 363.02 290.85 361.65 290.78
  Q 361.20 290.76 360.97 290.38
  L 360.52 289.63
  A 0.69 0.68 62.6 0 0 359.67 289.36
  L 353.92 291.84
  A 0.79 0.78 65.8 0 0 353.52 292.90
  L 354.13 294.20
  A 1.33 1.33 0.0 0 1 352.66 296.07
  C 348.74 295.26 351.55 293.29 350.99 291.26
  Q 350.86 290.81 350.47 290.54
  L 347.20 288.35
  Q 346.79 288.08 346.30 288.02
  Q 345.05 287.88 343.78 288.04
  Q 343.38 288.10 343.76 288.22
  L 344.12 288.33
  A 0.65 0.65 0.0 0 1 344.43 289.37
  L 342.44 291.77
  A 0.89 0.88 -58.2 0 1 341.40 292.02
  Q 339.89 291.37 338.42 292.09
  A 0.94 0.93 52.0 0 1 337.40 291.96
  Q 336.69 291.36 335.77 291.39
  Q 335.42 291.40 335.14 291.61
  Q 333.79 292.62 332.03 292.40
  Q 331.53 292.34 331.08 292.56
  Q 328.70 293.74 326.28 292.54
  Q 325.77 292.29 326.10 291.83
  L 326.62 291.11
  Q 326.98 290.61 326.55 290.17
  L 325.40 289.02
  Q 325.15 288.77 324.85 288.97
  Q 322.29 290.68 319.23 289.90
  Q 318.70 289.76 318.39 289.31
  Q 317.42 287.89 315.81 287.99
  A 1.52 1.45 -34.2 0 0 315.21 290.82
  Q 315.40 290.89 315.45 291.76
  A 0.24 0.23 25.1 0 1 315.02 291.91
  L 314.61 291.35
  Q 314.37 291.02 313.97 291.03
  C 312.65 291.04 309.50 290.20 309.44 292.27
  Q 309.43 292.78 308.93 292.76
  L 307.91 292.72
  Q 307.33 292.70 307.24 292.13
  Q 306.97 290.42 305.75 289.24
  Q 305.33 288.83 305.79 288.47
  Q 307.95 286.80 306.38 284.26
  A 0.63 0.63 0.0 0 0 305.47 284.09
  L 304.37 284.93
  Q 304.11 285.13 303.80 285.04
  Q 302.53 284.67 301.69 285.43
  A 0.77 0.76 -40.2 0 0 301.60 286.47
  Q 301.95 286.92 301.61 287.54
  Q 301.39 287.95 300.92 288.03
  Q 299.71 288.24 299.06 287.31
  A 1.10 1.08 -21.3 0 0 298.02 286.86
  Q 294.92 287.30 295.51 288.42
  A 2.03 1.52 -17.8 0 1 293.87 290.73
  Q 291.27 291.30 289.66 293.40
  A 0.72 0.71 36.8 0 0 289.81 294.40
  Q 291.10 295.34 290.59 296.86
  Q 290.39 297.47 289.89 297.06
  Q 288.86 296.22 289.18 294.87
  A 0.55 0.55 0.0 0 0 288.85 294.22
  Q 287.87 293.81 287.97 292.68
  A 0.22 0.05 85.8 0 0 287.88 292.38
  Q 287.76 292.96 287.59 293.00
  Q 287.30 293.07 287.24 292.78
  L 286.43 288.99
  Q 286.35 288.63 286.14 288.93
  L 284.16 291.88
  Q 284.11 291.96 284.20 292.00
  Q 284.41 292.08 284.59 292.15
  Q 284.88 292.27 284.73 292.55
  L 284.24 293.49
  A 0.47 0.47 0.0 0 1 283.44 293.55
  L 283.25 293.30
  Q 283.06 293.04 283.36 292.91
  Q 283.51 292.84 283.65 292.75
  Q 284.39 292.31 283.60 292.32
  C 283.49 292.32 283.08 292.57 283.02 292.74
  Q 282.03 295.17 279.70 296.20
  Q 279.26 296.39 279.06 296.83
  Q 278.34 298.46 276.79 299.02
  L 339.49 215.26
  Q 339.78 214.86 339.75 214.37
  L 339.71 213.75
  L 332.04 186.30
  L 384.45 114.69
  Q 384.87 114.12 384.19 114.33
  L 317.46 135.39
  L 293.56 183.81
  L 99.98 56.76
  Q 99.23 56.26 99.71 57.03
  L 243.40 285.95
  L 240.09 292.78
  Q 240.07 292.59 239.99 292.45
  Q 239.85 292.20 239.67 292.43
  L 238.11 294.53
  Q 237.59 295.23 237.48 294.36
  Q 237.21 292.10 235.20 290.97
  Q 234.65 290.67 234.34 291.21
  L 233.48 292.73
  Q 233.29 293.05 232.93 293.17
  Q 231.77 293.53 231.13 292.79
  Q 230.89 292.50 230.58 292.70
  Q 229.52 293.34 228.30 293.34
  A 0.48 0.48 0.0 0 1 227.93 292.56
  Q 228.61 291.72 229.66 291.93
  A 0.45 0.45 0.0 0 0 230.06 291.16
  L 227.60 288.81
  A 0.67 0.65 55.2 0 0 226.88 288.67
  Q 223.74 289.92 223.27 293.09
  A 1.15 1.15 0.0 0 1 220.99 292.96
  C 220.91 290.45 216.20 290.70 214.63 291.66
  A 1.79 1.72 30.0 0 1 213.62 291.91
  Q 210.42 291.73 209.14 294.88
  A 1.51 1.51 0.0 0 1 206.63 295.33
  Q 205.62 294.21 206.07 292.78
  Q 206.22 292.30 206.71 292.21
  Q 207.81 292.02 208.04 290.98
  Q 208.14 290.53 208.60 290.47
  Q 209.07 290.41 209.46 289.62
  A 1.26 0.70 -31.5 0 0 207.43 289.71
  L 206.31 291.49
  A 0.77 0.76 -66.6 0 1 205.47 291.83
  C 203.49 291.30 197.91 288.33 196.24 290.87
  Q 195.95 291.32 195.42 291.42
  Q 192.81 291.90 191.94 289.59
  A 0.71 0.71 0.0 0 0 190.60 289.60
  C 187.92 297.14 184.23 291.34 179.55 293.23
  Q 179.11 293.41 178.71 293.17
  Q 177.11 292.25 175.92 293.99
  A 1.13 0.89 -19.4 0 1 174.00 293.33
  Q 174.37 292.70 173.53 292.10
  Q 173.18 291.84 172.86 292.14
  L 171.42 293.47
  Q 171.20 293.68 170.90 293.66
  Q 169.42 293.60 167.00 293.77
  C 165.42 293.88 164.79 292.67 163.33 292.58
  Q 161.71 292.47 160.22 293.19
  Q 158.77 293.89 158.20 292.53
  A 1.08 1.07 59.9 0 0 156.56 292.09
  Q 155.70 292.74 154.93 293.82
  A 2.24 1.73 71.3 0 1 151.72 291.68
  Q 151.80 290.72 150.79 290.21
  Q 150.31 289.97 149.80 290.11
  Q 149.41 290.22 149.08 290.05
  Q 148.14 289.56 148.15 289.99
  L 148.15 290.46
  Q 148.16 290.92 147.71 291.01
  Q 146.99 291.15 146.86 290.46
  A 0.60 0.59 78.7 0 0 146.17 289.99
  C 145.51 290.11 144.18 291.10 143.72 290.51
  Q 143.40 290.10 143.35 290.57
  Q 143.24 291.61 142.61 292.58
  Q 142.18 293.24 141.73 292.60
  L 141.34 292.04
  Q 141.08 291.68 140.76 291.98
  Q 139.48 293.17 139.00 294.81
  Q 138.91 295.13 138.58 295.13
  L 138.29 295.12
  A 0.34 0.34 0.0 0 1 137.96 294.85
  L 137.59 293.23
  Q 137.47 292.69 136.93 292.85
  C 134.01 293.75 132.61 290.13 129.16 289.91
  Q 128.61 289.87 128.27 290.31
  Q 127.23 291.65 125.62 292.02
  Q 125.15 292.13 124.83 291.77
  L 123.70 290.51
  Q 123.55 290.35 123.43 290.52
  C 122.39 291.98 117.44 291.77 115.55 292.13
  Q 115.12 292.21 115.12 291.77
  L 115.13 291.28
  Q 115.13 290.65 114.51 290.70
  L 113.07 290.81
  Q 112.41 290.86 112.59 291.49
  C 113.21 293.71 108.66 293.78 107.38 293.02
  A 0.79 0.78 -74.7 0 1 106.99 292.32
  Q 107.04 290.93 105.63 290.76
  Q 105.17 290.71 104.93 290.31
  L 104.53 289.65
  Q 104.23 289.15 103.69 289.37
  L 97.78 291.76
  Q 97.25 291.97 97.33 292.53
  L 97.70 295.25
  A 0.64 0.64 0.0 0 1 97.14 295.97
  C 95.14 296.22 93.62 294.41 95.07 292.87
  A 1.84 1.43 36.0 0 0 94.36 290.43
  L 90.74 288.18
  A 1.01 1.00 54.9 0 0 90.01 288.05
  Q 88.09 288.45 87.54 290.02
  C 86.64 292.59 85.52 292.36 83.15 292.37
  Q 81.70 292.37 80.70 291.20
  Q 80.34 290.79 79.81 290.70
  Q 78.14 290.43 76.84 291.58
  Q 76.78 291.64 76.78 291.55
  Q 76.80 291.36 76.76 291.28
  Q 76.62 290.91 76.54 291.36
  C 76.31 292.62 72.75 293.43 71.73 293.61
  C 68.79 294.14 66.64 292.39 63.13 293.57
  A 1.42 1.38 -41.4 0 1 62.12 293.52
  Q 58.19 291.82 55.48 294.70
  Q 55.32 294.87 54.50 295.00
  Q 53.97 295.08 53.70 294.47
  Q 53.52 294.06 53.08 294.03
  L 51.43 293.91
  Q 51.06 293.88 50.84 294.18
  Q 50.14 295.14 48.91 295.22
  Q 48.49 295.25 48.15 295.49
  C 45.48 297.40 38.66 293.77 36.20 292.06
  A 0.62 0.62 0.0 0 0 35.42 292.11
  Q 33.62 293.79 31.47 293.29
  Q 30.95 293.16 30.57 292.78
  Q 29.99 292.19 29.92 291.56
  Q 29.88 291.17 29.57 290.95
  Q 28.73 290.36 28.13 290.96
  Q 27.89 291.19 27.98 291.51
  L 28.21 292.28
  Q 28.28 292.54 28.06 292.69
  Q 27.57 293.01 27.21 292.63
  Q 26.81 292.20 26.22 292.20
  Q 24.32 292.17 22.82 291.13
  Q 22.35 290.80 21.78 290.81
  L 17.27 290.92
  A 1.31 1.29 18.8 0 0 16.28 291.40
  Q 15.66 292.17 15.67 293.16
  A 1.21 1.21 0.0 0 1 13.51 293.91
  L 10.42 289.90
  Q 10.07 289.45 9.50 289.52
  Q 6.27 289.96 4.37 292.65
  A 0.82 0.81 -70.1 0 1 3.63 293.00
  L 2.97 292.95
  Q 2.53 292.92 2.48 293.36
  Q 1.69 300.78 1.53 308.23
  C 1.47 311.36 0.59 315.03 0.67 318.50
  Q 0.95 330.09 0.67 341.69
  A 0.09 0.09 0.0 0 1 0.49 341.69
  L 0.00 255.94
  L 0.00 67.70
  C 2.72 30.42 30.48 2.38 67.82 0.00
  Z"
/>
<path fill="#0c94ff" d="
  M 293.56 183.81
  Q 293.74 184.22 294.68 184.83
  Q 309.51 194.36 338.24 213.51
  Q 338.81 213.89 339.71 213.75
  L 339.75 214.37
  Q 339.78 214.86 339.49 215.26
  L 276.79 299.02
  L 263.50 316.79
  C 262.26 316.91 245.35 289.09 243.40 285.95
  L 99.71 57.03
  Q 99.23 56.26 99.98 56.76
  L 293.56 183.81
  Z"
/>
<path fill="#0c94ff" d="
  M 332.04 186.30
  L 317.46 135.39
  L 384.19 114.33
  Q 384.87 114.12 384.45 114.69
  L 332.04 186.30
  Z"
/>
<path fill="#0b6fbd" d="
  M 317.46 135.39
  L 332.04 186.30
  L 339.71 213.75
  Q 338.81 213.89 338.24 213.51
  Q 309.51 194.36 294.68 184.83
  Q 293.74 184.22 293.56 183.81
  L 317.46 135.39
  Z"
/>
<path fill="#00344e" d="
  M 512.00 228.31
  L 512.00 444.06
  C 509.72 481.63 481.42 509.34 443.94 512.00
  L 68.19 512.00
  C 30.63 509.85 3.06 481.90 0.00 444.43
  L 0.00 255.94
  L 0.49 341.69
  A 0.09 0.09 0.0 0 0 0.67 341.69
  Q 0.95 330.09 0.67 318.50
  C 0.59 315.03 1.47 311.36 1.53 308.23
  Q 1.69 300.78 2.48 293.36
  Q 2.53 292.92 2.97 292.95
  L 3.63 293.00
  A 0.82 0.81 -70.1 0 0 4.37 292.65
  Q 6.27 289.96 9.50 289.52
  Q 10.07 289.45 10.42 289.90
  L 13.51 293.91
  A 1.21 1.21 0.0 0 0 15.67 293.16
  Q 15.66 292.17 16.28 291.40
  A 1.31 1.29 18.8 0 1 17.27 290.92
  L 21.78 290.81
  Q 22.35 290.80 22.82 291.13
  Q 24.32 292.17 26.22 292.20
  Q 26.81 292.20 27.21 292.63
  Q 27.57 293.01 28.06 292.69
  Q 28.28 292.54 28.21 292.28
  L 27.98 291.51
  Q 27.89 291.19 28.13 290.96
  Q 28.73 290.36 29.57 290.95
  Q 29.88 291.17 29.92 291.56
  Q 29.99 292.19 30.57 292.78
  Q 30.95 293.16 31.47 293.29
  Q 33.62 293.79 35.42 292.11
  A 0.62 0.62 0.0 0 1 36.20 292.06
  C 38.66 293.77 45.48 297.40 48.15 295.49
  Q 48.49 295.25 48.91 295.22
  Q 50.14 295.14 50.84 294.18
  Q 51.06 293.88 51.43 293.91
  L 53.08 294.03
  Q 53.52 294.06 53.70 294.47
  Q 53.97 295.08 54.50 295.00
  Q 55.32 294.87 55.48 294.70
  Q 58.19 291.82 62.12 293.52
  A 1.42 1.38 -41.4 0 0 63.13 293.57
  C 66.64 292.39 68.79 294.14 71.73 293.61
  C 72.75 293.43 76.31 292.62 76.54 291.36
  Q 76.62 290.91 76.76 291.28
  Q 76.80 291.36 76.78 291.55
  Q 76.78 291.64 76.84 291.58
  Q 78.14 290.43 79.81 290.70
  Q 80.34 290.79 80.70 291.20
  Q 81.70 292.37 83.15 292.37
  C 85.52 292.36 86.64 292.59 87.54 290.02
  Q 88.09 288.45 90.01 288.05
  A 1.01 1.00 54.9 0 1 90.74 288.18
  L 94.36 290.43
  A 1.84 1.43 36.0 0 1 95.07 292.87
  C 93.62 294.41 95.14 296.22 97.14 295.97
  A 0.64 0.64 0.0 0 0 97.70 295.25
  L 97.33 292.53
  Q 97.25 291.97 97.78 291.76
  L 103.69 289.37
  Q 104.23 289.15 104.53 289.65
  L 104.93 290.31
  Q 105.17 290.71 105.63 290.76
  Q 107.04 290.93 106.99 292.32
  A 0.79 0.78 -74.7 0 0 107.38 293.02
  C 108.66 293.78 113.21 293.71 112.59 291.49
  Q 112.41 290.86 113.07 290.81
  L 114.51 290.70
  Q 115.13 290.65 115.13 291.28
  L 115.12 291.77
  Q 115.12 292.21 115.55 292.13
  C 117.44 291.77 122.39 291.98 123.43 290.52
  Q 123.55 290.35 123.70 290.51
  L 124.83 291.77
  Q 125.15 292.13 125.62 292.02
  Q 127.23 291.65 128.27 290.31
  Q 128.61 289.87 129.16 289.91
  C 132.61 290.13 134.01 293.75 136.93 292.85
  Q 137.47 292.69 137.59 293.23
  L 137.96 294.85
  A 0.34 0.34 0.0 0 0 138.29 295.12
  L 138.58 295.13
  Q 138.91 295.13 139.00 294.81
  Q 139.48 293.17 140.76 291.98
  Q 141.08 291.68 141.34 292.04
  L 141.73 292.60
  Q 142.18 293.24 142.61 292.58
  Q 143.24 291.61 143.35 290.57
  Q 143.40 290.10 143.72 290.51
  C 144.18 291.10 145.51 290.11 146.17 289.99
  A 0.60 0.59 78.7 0 1 146.86 290.46
  Q 146.99 291.15 147.71 291.01
  Q 148.16 290.92 148.15 290.46
  L 148.15 289.99
  Q 148.14 289.56 149.08 290.05
  Q 149.41 290.22 149.80 290.11
  Q 150.31 289.97 150.79 290.21
  Q 151.80 290.72 151.72 291.68
  A 2.24 1.73 71.3 0 0 154.93 293.82
  Q 155.70 292.74 156.56 292.09
  A 1.08 1.07 59.9 0 1 158.20 292.53
  Q 158.77 293.89 160.22 293.19
  Q 161.71 292.47 163.33 292.58
  C 164.79 292.67 165.42 293.88 167.00 293.77
  Q 169.42 293.60 170.90 293.66
  Q 171.20 293.68 171.42 293.47
  L 172.86 292.14
  Q 173.18 291.84 173.53 292.10
  Q 174.37 292.70 174.00 293.33
  A 1.13 0.89 -19.4 0 0 175.92 293.99
  Q 177.11 292.25 178.71 293.17
  Q 179.11 293.41 179.55 293.23
  C 184.23 291.34 187.92 297.14 190.60 289.60
  A 0.71 0.71 0.0 0 1 191.94 289.59
  Q 192.81 291.90 195.42 291.42
  Q 195.95 291.32 196.24 290.87
  C 197.91 288.33 203.49 291.30 205.47 291.83
  A 0.77 0.76 -66.6 0 0 206.31 291.49
  L 207.43 289.71
  A 1.26 0.70 -31.5 0 1 209.46 289.62
  Q 209.07 290.41 208.60 290.47
  Q 208.14 290.53 208.04 290.98
  Q 207.81 292.02 206.71 292.21
  Q 206.22 292.30 206.07 292.78
  Q 205.62 294.21 206.63 295.33
  A 1.51 1.51 0.0 0 0 209.14 294.88
  Q 210.42 291.73 213.62 291.91
  A 1.79 1.72 30.0 0 0 214.63 291.66
  C 216.20 290.70 220.91 290.45 220.99 292.96
  A 1.15 1.15 0.0 0 0 223.27 293.09
  Q 223.74 289.92 226.88 288.67
  A 0.67 0.65 55.2 0 1 227.60 288.81
  L 230.06 291.16
  A 0.45 0.45 0.0 0 1 229.66 291.93
  Q 228.61 291.72 227.93 292.56
  A 0.48 0.48 0.0 0 0 228.30 293.34
  Q 229.52 293.34 230.58 292.70
  Q 230.89 292.50 231.13 292.79
  Q 231.77 293.53 232.93 293.17
  Q 233.29 293.05 233.48 292.73
  L 234.34 291.21
  Q 234.65 290.67 235.20 290.97
  Q 237.21 292.10 237.48 294.36
  Q 237.59 295.23 238.11 294.53
  L 239.67 292.43
  Q 239.85 292.20 239.99 292.45
  Q 240.07 292.59 240.09 292.78
  L 160.66 454.77
  A 0.08 0.08 0.0 0 0 160.79 454.85
  L 263.50 316.79
  L 276.79 299.02
  Q 278.34 298.46 279.06 296.83
  Q 279.26 296.39 279.70 296.20
  Q 282.03 295.17 283.02 292.74
  C 283.08 292.57 283.49 292.32 283.60 292.32
  Q 284.39 292.31 283.65 292.75
  Q 283.51 292.84 283.36 292.91
  Q 283.06 293.04 283.25 293.30
  L 283.44 293.55
  A 0.47 0.47 0.0 0 0 284.24 293.49
  L 284.73 292.55
  Q 284.88 292.27 284.59 292.15
  Q 284.41 292.08 284.20 292.00
  Q 284.11 291.96 284.16 291.88
  L 286.14 288.93
  Q 286.35 288.63 286.43 288.99
  L 287.24 292.78
  Q 287.30 293.07 287.59 293.00
  Q 287.76 292.96 287.88 292.38
  A 0.22 0.05 85.8 0 1 287.97 292.68
  Q 287.87 293.81 288.85 294.22
  A 0.55 0.55 0.0 0 1 289.18 294.87
  Q 288.86 296.22 289.89 297.06
  Q 290.39 297.47 290.59 296.86
  Q 291.10 295.34 289.81 294.40
  A 0.72 0.71 36.8 0 1 289.66 293.40
  Q 291.27 291.30 293.87 290.73
  A 2.03 1.52 -17.8 0 0 295.51 288.42
  Q 294.92 287.30 298.02 286.86
  A 1.10 1.08 -21.3 0 1 299.06 287.31
  Q 299.71 288.24 300.92 288.03
  Q 301.39 287.95 301.61 287.54
  Q 301.95 286.92 301.60 286.47
  A 0.77 0.76 -40.2 0 1 301.69 285.43
  Q 302.53 284.67 303.80 285.04
  Q 304.11 285.13 304.37 284.93
  L 305.47 284.09
  A 0.63 0.63 0.0 0 1 306.38 284.26
  Q 307.95 286.80 305.79 288.47
  Q 305.33 288.83 305.75 289.24
  Q 306.97 290.42 307.24 292.13
  Q 307.33 292.70 307.91 292.72
  L 308.93 292.76
  Q 309.43 292.78 309.44 292.27
  C 309.50 290.20 312.65 291.04 313.97 291.03
  Q 314.37 291.02 314.61 291.35
  L 315.02 291.91
  A 0.24 0.23 25.1 0 0 315.45 291.76
  Q 315.40 290.89 315.21 290.82
  A 1.52 1.45 -34.2 0 1 315.81 287.99
  Q 317.42 287.89 318.39 289.31
  Q 318.70 289.76 319.23 289.90
  Q 322.29 290.68 324.85 288.97
  Q 325.15 288.77 325.40 289.02
  L 326.55 290.17
  Q 326.98 290.61 326.62 291.11
  L 326.10 291.83
  Q 325.77 292.29 326.28 292.54
  Q 328.70 293.74 331.08 292.56
  Q 331.53 292.34 332.03 292.40
  Q 333.79 292.62 335.14 291.61
  Q 335.42 291.40 335.77 291.39
  Q 336.69 291.36 337.40 291.96
  A 0.94 0.93 52.0 0 0 338.42 292.09
  Q 339.89 291.37 341.40 292.02
  A 0.89 0.88 -58.2 0 0 342.44 291.77
  L 344.43 289.37
  A 0.65 0.65 0.0 0 0 344.12 288.33
  L 343.76 288.22
  Q 343.38 288.10 343.78 288.04
  Q 345.05 287.88 346.30 288.02
  Q 346.79 288.08 347.20 288.35
  L 350.47 290.54
  Q 350.86 290.81 350.99 291.26
  C 351.55 293.29 348.74 295.26 352.66 296.07
  A 1.33 1.33 0.0 0 0 354.13 294.20
  L 353.52 292.90
  A 0.79 0.78 65.8 0 1 353.92 291.84
  L 359.67 289.36
  A 0.69 0.68 62.6 0 1 360.52 289.63
  L 360.97 290.38
  Q 361.20 290.76 361.65 290.78
  Q 363.02 290.85 362.98 292.34
  A 0.83 0.81 15.2 0 0 363.41 293.07
  C 364.56 293.68 368.75 293.81 368.64 291.89
  Q 368.61 291.43 368.92 291.09
  Q 369.80 290.14 371.13 291.15
  A 0.32 0.32 0.0 0 1 371.22 291.55
  L 371.07 291.82
  Q 370.91 292.13 371.25 292.08
  C 373.43 291.76 378.49 292.14 379.65 290.18
  Q 379.75 290.01 379.95 290.00
  Q 380.10 290.00 380.25 289.99
  Q 380.94 289.93 380.26 290.27
  Q 380.12 290.33 380.00 290.42
  A 0.22 0.22 0.0 0 0 379.93 290.71
  C 381.88 294.44 383.83 289.12 386.34 290.04
  Q 388.68 290.90 390.46 292.70
  Q 390.77 293.01 391.21 293.00
  L 393.20 292.92
  A 0.59 0.58 6.2 0 1 393.79 293.65
  Q 393.60 294.36 393.90 295.04
  A 0.48 0.47 48.6 0 0 394.75 295.10
  L 396.51 292.15
  A 0.40 0.40 0.0 0 1 397.09 292.03
  L 397.77 292.53
  Q 398.19 292.84 398.61 292.55
  Q 399.14 292.19 399.18 291.59
  Q 399.22 291.09 399.69 290.90
  L 402.05 289.98
  Q 402.65 289.74 402.80 290.38
  Q 402.93 290.97 403.52 291.02
  Q 404.03 291.06 404.10 290.56
  L 404.16 290.07
  A 0.30 0.29 -71.5 0 1 404.59 289.85
  Q 405.41 290.30 406.08 290.08
  Q 406.65 289.90 407.02 290.36
  Q 407.69 291.19 407.21 292.23
  Q 406.99 292.72 407.40 293.06
  C 409.60 294.89 411.25 293.72 412.30 291.53
  Q 412.44 291.25 412.75 291.30
  Q 414.20 291.53 414.95 292.76
  Q 415.27 293.27 415.83 293.06
  Q 417.53 292.42 419.53 292.54
  Q 419.95 292.57 420.35 292.71
  Q 421.01 292.94 421.51 293.37
  Q 421.91 293.72 422.44 293.71
  L 426.86 293.64
  Q 427.21 293.63 427.48 293.40
  L 429.03 292.03
  Q 429.44 291.66 429.75 292.12
  Q 430.27 292.89 430.08 293.52
  A 0.45 0.44 18.2 0 0 430.37 294.08
  L 431.21 294.35
  Q 431.84 294.55 432.05 293.93
  C 432.60 292.30 436.24 293.33 437.84 292.68
  Q 438.23 292.52 438.63 292.66
  L 441.95 293.82
  A 1.03 1.02 -45.4 0 0 442.67 293.81
  Q 446.41 292.37 450.39 293.11
  Q 450.75 293.18 450.75 293.55
  L 450.75 294.64
  Q 450.75 295.03 451.14 295.02
  Q 454.66 294.94 457.78 296.58
  A 0.96 0.95 44.1 0 0 458.67 296.57
  Q 460.81 295.39 462.80 296.77
  A 0.90 0.89 -43.2 0 0 463.76 296.80
  L 466.24 295.29
  Q 466.71 295.01 467.27 295.02
  Q 469.46 295.05 471.42 294.04
  A 0.26 0.25 54.0 0 1 471.71 294.09
  L 471.94 294.31
  A 0.26 0.25 -44.2 0 0 472.31 294.31
  L 472.56 294.07
  Q 472.57 294.05 472.60 294.06
  Q 472.79 294.19 472.98 294.32
  Q 473.17 294.45 473.34 294.28
  L 473.56 294.06
  Q 473.58 294.04 473.60 294.07
  Q 473.70 294.24 473.85 294.37
  Q 473.95 294.46 474.08 294.41
  Q 475.61 293.83 477.27 293.79
  Q 477.50 293.79 477.50 293.55
  Q 477.50 293.41 477.50 293.25
  Q 477.48 292.67 477.65 293.25
  Q 477.73 293.49 477.88 293.68
  Q 478.16 294.02 478.57 293.89
  L 480.93 293.12
  Q 481.28 293.01 481.54 293.26
  C 482.61 294.31 483.47 294.06 484.64 293.17
  Q 486.55 291.72 488.53 293.31
  A 0.62 0.62 0.0 0 0 489.35 293.26
  C 490.57 292.01 492.94 290.17 494.06 292.91
  Q 494.27 293.42 494.81 293.36
  Q 496.68 293.19 497.35 291.20
  Q 497.50 290.77 497.95 290.71
  Q 501.85 290.18 504.93 292.75
  Q 505.32 293.08 505.42 293.57
  L 505.85 295.68
  A 0.47 0.47 0.0 0 0 506.40 296.05
  C 510.05 295.31 509.77 291.92 509.71 288.48
  Q 509.70 287.94 510.23 287.99
  Q 510.39 288.00 510.53 288.00
  Q 510.78 288.00 510.76 288.24
  Q 510.41 292.26 510.95 296.27
  A 0.18 0.17 41.2 0 0 511.30 296.25
  Q 510.96 262.26 512.00 228.31
  Z"
/>
<path fill="#0b6fbd" d="
  M 243.40 285.95
  C 245.35 289.09 262.26 316.91 263.50 316.79
  L 160.79 454.85
  A 0.08 0.08 0.0 0 1 160.66 454.77
  L 240.09 292.78
  L 243.40 285.95
  Z"
/>
</svg>
