<?xml version="1.0" encoding="UTF-8" standalone="no"?>
<!DOCTYPE svg PUBLIC "-//W3C//DTD SVG 1.1//EN" "http://www.w3.org/Graphics/SVG/1.1/DTD/svg11.dtd">
<svg xmlns="http://www.w3.org/2000/svg" version="1.1" viewBox="0.00 0.00 152.00 139.00">

<path fill="#00adb5" d="
  M 80.7108 129.2752
  A 1.22 1.22 0.0 0 1 78.9854 129.2782
  L 20.5049 71.0015
  A 1.22 1.22 0.0 0 1 20.5019 69.2761
  L 78.8492 10.7248
  A 1.22 1.22 0.0 0 1 80.5746 10.7218
  L 139.0551 68.9985
  A 1.22 1.22 0.0 0 1 139.0581 70.7239
  L 80.7108 129.2752
  Z
  M 127.0184 70.5629
  A 0.98 0.98 0.0 0 0 127.0160 69.1769
  L 80.3080 22.6318
  A 0.98 0.98 0.0 0 0 78.9221 22.6342
  L 32.4616 69.2571
  A 0.98 0.98 0.0 0 0 32.4640 70.6431
  L 79.1720 117.1882
  A 0.98 0.98 0.0 0 0 80.5579 117.1858
  L 127.0184 70.5629
  Z"
/>

<path fill="#00adb5" d="
  M 80.1070 105.5289
  A 0.51 0.51 0.0 0 1 79.3857 105.5289
  L 44.1011 70.2443
  A 0.51 0.51 0.0 0 1 44.1011 69.5230
  L 79.5130 34.1111
  A 0.51 0.51 0.0 0 1 80.2343 34.1111
  L 115.5189 69.3957
  A 0.51 0.51 0.0 0 1 115.5189 70.1170
  L 80.1070 105.5289
  Z
  M 80.5066 46.7072
  A 1.07 1.07 0.0 0 0 78.9934 46.7019
  L 56.6277 68.9120
  A 1.07 1.07 0.0 0 0 56.6224 70.4252
  L 78.9734 92.9328
  A 1.07 1.07 0.0 0 0 80.4866 92.9381
  L 102.8523 70.7280
  A 1.07 1.07 0.0 0 0 102.8576 69.2148
  L 80.5066 46.7072
  Z"
/>
<rect fill="#00adb5" x="-8.49" y="-8.48" transform="translate(79.74,69.88) rotate(-44.9)" width="16.98" height="16.96" rx="0.67"/>
</svg>
